<?xml version="1.0" standalone="no"?>
<!DOCTYPE svg PUBLIC "-//W3C//DTD SVG 20010904//EN"
 "http://www.w3.org/TR/2001/REC-SVG-20010904/DTD/svg10.dtd">
<svg version="1.0" xmlns="http://www.w3.org/2000/svg"
 width="684.000000pt" height="684.000000pt" viewBox="0 0 684.000000 684.000000"
 preserveAspectRatio="xMidYMid meet">

<g transform="translate(0.000000,684.000000) scale(0.100000,-0.100000)"
fill="#000000" stroke="none">
<path d="M3135 6829 c-1112 -91 -2118 -731 -2679 -1703 -728 -1262 -573 -2854
385 -3951 594 -681 1412 -1092 2313 -1165 1230 -98 2424 483 3113 1515 854
1279 744 2981 -268 4140 -594 681 -1412 1092 -2313 1165 -147 11 -403 11 -551
-1z m-90 -1493 c122 -31 250 -101 331 -181 170 -170 214 -324 214 -755 0 -265
-14 -395 -55 -513 -46 -134 -167 -274 -294 -341 -39 -20 -71 -39 -71 -42 0 -3
21 -49 47 -102 25 -54 46 -108 46 -122 0 -14 -39 -92 -87 -175 -123 -210 -152
-261 -246 -425 -46 -80 -90 -156 -99 -170 -9 -14 -21 -34 -27 -45 -6 -11 -46
-81 -89 -155 -42 -74 -86 -151 -97 -170 -26 -45 -58 -79 -58 -61 0 12 150 372
216 519 13 29 24 55 24 57 0 2 11 29 25 59 14 30 25 58 25 62 0 8 -86 198
-199 439 -21 44 -53 113 -71 153 l-33 72 -167 0 c-127 0 -170 -3 -179 -13 -7
-9 -11 -174 -13 -530 l-3 -516 -23 -23 c-22 -23 -26 -23 -278 -23 l-256 0 -24
28 -24 28 0 1455 0 1456 30 29 29 30 668 -4 c600 -3 675 -5 738 -21z m2186
-635 l24 -19 3 -1459 c2 -1087 -1 -1464 -9 -1480 -21 -40 -52 -44 -302 -41
-231 3 -237 4 -259 26 l-23 23 -5 1122 c-3 617 -6 1116 -8 1109 -1 -8 -8 -28
-16 -45 -7 -18 -19 -52 -25 -77 -12 -44 -45 -153 -121 -400 -21 -69 -55 -179
-75 -245 -20 -66 -50 -165 -67 -220 -16 -55 -34 -113 -39 -130 -5 -16 -30 -97
-55 -180 -51 -168 -84 -277 -144 -475 -43 -143 -101 -332 -127 -415 -36 -112
-128 -147 -202 -77 -30 27 -55 91 -101 257 -13 44 -31 105 -41 135 -10 30 -39
127 -64 215 -44 153 -79 267 -165 545 -101 324 -95 300 -80 323 7 12 27 47 43
77 16 30 35 62 42 70 6 8 38 62 70 120 32 58 70 125 86 150 15 25 37 62 48 83
34 61 52 92 171 297 62 107 121 209 130 226 33 57 45 74 52 74 19 0 -2 -60
-79 -230 -14 -30 -38 -86 -53 -125 -16 -38 -47 -113 -70 -165 -87 -197 -90
-207 -81 -237 5 -15 23 -73 40 -128 16 -55 46 -152 65 -215 19 -63 38 -127 42
-142 10 -45 31 -32 49 30 9 31 35 116 57 187 22 72 47 153 55 180 8 28 17 57
20 65 4 8 15 44 25 80 10 36 25 85 32 110 38 127 89 292 135 445 50 163 78
254 136 450 15 51 36 98 47 108 19 16 54 17 418 17 377 0 399 -1 421 -19z
m-2183 -2505 l-3 -458 -24 -19 c-21 -18 -42 -19 -261 -19 -131 0 -245 3 -254
6 -20 8 -21 33 -2 59 7 11 22 36 33 55 72 127 176 307 183 315 4 6 23 39 43
75 19 36 58 106 87 155 109 185 124 211 141 243 25 47 41 64 51 54 5 -5 7
-215 6 -466z"/>
<path d="M2207 4818 c-16 -12 -17 -42 -15 -443 l3 -430 280 -3 c323 -4 367 2
425 55 68 61 73 89 74 387 l1 262 -30 60 c-26 49 -39 64 -85 89 l-55 30 -290
3 c-229 3 -294 1 -308 -10z"/>
</g>
</svg>
